<svg xmlns="http://www.w3.org/2000/svg" viewBox="0 0 32 32">
  <defs>
    <linearGradient id="bg" x1="0%" y1="0%" x2="100%" y2="100%">
      <stop offset="0%" stop-color="#f7931a"/>
      <stop offset="100%" stop-color="#ea7c00"/>
    </linearGradient>
    <radialGradient id="glow" cx="80%" cy="20%" r="60%">
      <stop offset="0%" stop-color="#00d9ff" stop-opacity="0.35"/>
      <stop offset="100%" stop-color="#00d9ff" stop-opacity="0"/>
    </radialGradient>
  </defs>

  <!-- BTC orange rounded square -->
  <rect width="32" height="32" rx="7" fill="url(#bg)"/>
  <!-- cyan corner glow -->
  <rect width="32" height="32" rx="7" fill="url(#glow)"/>

  <!-- Stylized ₿ glyph -->
  <path
    d="M11 7h7c2.8 0 4.5 1.4 4.5 3.7 0 1.4-0.7 2.5-1.8 3.1 1.5 0.6 2.4 1.9 2.4 3.6 0 2.6-2 4.1-5.2 4.1H11V7zm3 5.7h3.5c1.4 0 2.2-0.6 2.2-1.7 0-1.1-0.8-1.7-2.2-1.7H14v3.4zm0 6.6h3.9c1.5 0 2.3-0.7 2.3-1.9 0-1.2-0.8-1.9-2.3-1.9H14v3.8zM15 5h2v3h-2V5zm0 19h2v3h-2v-3z"
    fill="#ffffff"/>
</svg>
